PathFileType	4	(X/Y/Z)	/home/abdul/Documents/myosuite/MHH/MHH/IK/original/output/S5_12_1.trc
DataRate	CameraRate	NumFrames	NumMarkers	Units	OrigDataRate	OrigDataStartFrame	OrigNumFrames
200.0	200.0	62	3	mm	200.0	951	1267
Frame#	Time	V_Shoulder			V_Elbow			V_Wrist		
		X1	Y1	Z1	X2	Y2	Z2	X3	Y3	Z3

951	4.75	3.949986772116919	737.603597323684	261.12038009785346	-117.6919756883617	555.6579032254053	38.773260271273465	-41.36093012887308	329.2143722006042	68.06243845472295
952	4.755	3.951823760355207	737.5843413253566	261.09283098462055	-117.81410352736607	555.9294489788214	38.59780189441668	-42.22063093234736	329.2802349037727	68.6150835102283
953	4.76	3.9537078639949264	737.5652125857206	261.06499804490073	-117.94145229658434	556.202022828668	38.4237304881961	-43.112873580514744	329.338269564156	69.17138450686367
954	4.765	3.955615523837221	737.5462821514033	261.03687752803944	-118.07407662475393	556.4752211457603	38.251455931114144	-44.03742663551288	329.38811168808525	69.73009265931984
955	4.77	3.9575204329816507	737.5276194012881	261.00846461356645	-118.21202672897819	556.7486324432749	38.08138818415415	-44.993989540528375	329.42940771124523	70.2899230040271
956	4.775	3.959393538331287	737.5092916667209	260.9797534031748	-118.35534801279712	557.0218385860003	37.91393561160606	-45.98219207342728	329.461816455005	70.8495577841945
957	4.78	3.9612030513279497	737.4913638609136	260.95073691856754	-118.50408065395571	557.2944160498087	37.74950326928944	-47.00159401776765	329.48501057215526	71.40765002617474
958	4.785	3.9629144681440245	737.4738981194231	260.92140710539474	-118.65825918318194	557.5659372261091	37.58849116854931	-48.05168505536016	329.498677974966	71.96282729506986
959	4.79	3.9644905995361364	737.4569534535439	260.89175484347896	-118.8179120554609	557.8359717656965	37.43129252480248	-49.131884883571665	329.5025232384182	72.5136956163302
960	4.795	3.965891610542697	737.4405854183901	260.8617699634994	-118.98306121546608	558.1040879560966	37.27829199976234	-50.241543559573586	329.496268971448	73.05884354898666
961	4.8	3.9670750701818673	737.4248457973904	260.83144127027407	-119.15372165897983	558.3698541262229	37.129863946762676	-51.37994207272753	329.4796571490564	73.59684639510354
962	4.805	3.9679960112788346	737.4097823048324	260.8007565727503	-119.32990099230287	558.6328400719161	36.98637066883229	-52.54629314528305	329.4524503982018	74.1262705290534
963	4.81	3.968607000521379	737.3954383080187	260.7697027207737	-119.51159899181434	558.8926184957204	36.848160699338216	-53.73974226054236	329.41443323049145	74.64567782930746
964	4.815	3.9688582188105976	737.3818525704959	260.7382656486721	-119.69880716599648	559.1487664540839	36.71556711511272	-54.95936891663227	329.36541321482554	75.15363019460914
965	4.82	3.9686975519393	737.369059017718	260.706430425648	-119.89150832238235	559.4008668050375	36.58890589200618	-56.20418810302041	329.30522208333065	75.64869412566591
966	4.825	3.9680706915941144	737.3570865263952	260.67418131293283	-120.08967614201646	559.6485096493161	36.468474312760925	-57.47315199592801	329.2337167641369	76.12944535285882
967	4.83	3.966921246638744	737.3459587386532	260.6415018276104	-120.29327476413638	559.8912937578442	36.35454943698069	-58.76515186783162	329.15078033481234	76.59447348993959
968	4.835	3.9651908645951828	737.3356939020074	260.60837481297216	-120.50225838388627	560.128827978503	36.24738664277497	-60.07902020531554	329.0563228905662	77.0423866932644
969	4.84	3.962819363197246	737.3263047360201	260.57478251521894	-120.7165708659592	560.3607326151407	36.147218249387294	-61.41353302864357	328.9502823216667	77.47181630580872
970	4.845	3.9597448718464743	737.3177983263658	260.54070666627473	-120.93614537713201	560.5866407718788	36.05425222977277	-62.76741240556525	328.83262499489024	77.88142146502167
971	4.85	3.9559039827546685	737.3101760468872	260.5061285724291	-121.16090404070329	560.8061996558929	35.968671021674865	-64.13932915106452	328.70334633422783	78.26989365351511
972	4.855	3.951231911510021	737.3034335100762	260.47102920847607	-121.39075761587114	561.0190718320307	35.89063044526582	-65.52790570400114	328.56247129651047	78.63596117164295
973	4.86	3.9456626667554264	737.2975605462562	260.43538931696503	-121.62560520508993	561.2249364228428	35.82025873486394	-66.93171917089077	328.4100547380922	78.97839351121482
974	4.865	3.939129228618152	737.2925412115947	260.3991895121297	-121.86533399242516	561.4234902478686	35.75765569162627	-68.34930452642058	328.2461816692269	79.29600560990079
975	4.87	3.9315637354800206	737.2883538249063	260.36241038801546	-122.10981901588107	561.6144488963141	35.70289196344321	-69.77915795970806	328.0709673933079	79.58766196632469
976	4.875	3.9228976786268	737.2849710330607	260.3250326302723	-122.3589229766063	561.7975477276029	35.65600845753569	-71.21974035477974	327.88455752868936	79.85228059640824
977	4.88	3.913062104264991	737.282359904646	260.28703713103727	-122.61249608778883	561.9725427946556	35.617015890482676	-72.66948089327872	327.6871279113901	80.0888368122146
978	4.885	3.901987822343908	737.2804820513842	260.2484051062848	-122.8703759659322	562.1392116851589	35.58589447959166	-74.12678076700291	327.47888437757047	80.29636680534595
979	4.89	3.8896056215712718	737.2792937766412	260.20911821498044	-123.1323875670609	562.297354276527	35.56259377867536	-75.59001698753116	327.2600624252898	80.47397101786962
980	4.895	3.8758464899618112	737.2787462502316	260.1691586793341	-123.39834317023471	562.4467934007257	35.547032660419354	-77.05754627991134	327.03092675567126	80.62081728477582
981	4.9	3.860641840210956	737.2787857085609	260.1285094054122	-123.66804241055897	562.5873754156165	35.53909944662619	-78.5277090471624	326.79177069423855	80.73614373310184
982	4.905	3.8439237391399934	737.2793536790196	260.0871541033353	-123.9412723636631	562.7189706799963	35.53865218670768	-79.9988333921783	326.5429154938233	80.81926142408375
983	4.91	3.82562514041545	737.2803872274095	260.0450774062576	-124.217807683383	562.841473930032	35.54551908387713	-81.46923918351764	326.2847095210825	80.86955672601188
984	4.915	3.805680119704359	737.2818192270523	260.0022649873011	-124.4974107941248	562.9548045553386	35.5594990675735	-82.93724215151227	326.0175273293029	80.88649340685825
985	4.92	3.784024111388767	737.2835786481156	259.9587036735968	-124.77983213911219	563.0589067734993	35.58036250973767	-84.40115800113206	325.7417686207952	80.86961443720728
986	4.925	3.7605941459278664	737.2855908655883	259.9143815565671	-125.06481048542541	563.1537497023863	35.60785208166458	-85.85930652809868	325.4578571027995	80.81854349554158
987	4.93	3.735329086924697	737.2877779842341	259.86928809757734	-125.35207328643199	563.2393273302052	35.641683747280425	-87.31001572484352	325.1662392414232	80.7329861695056
988	4.935	3.7081698669269927	737.2900591787643	259.8234142280776	-125.6413371018873	563.3156583837435	35.681547887848055	-88.75162586305555	324.8673829187125	80.61273084837677
989	4.94	3.6790597209685694	737.2923510473993	259.7767524433553	-125.93230807565087	563.3827860958645	35.727110552293816	-90.1824935397565	324.5617759985149	80.45764930360906
990	4.945	3.6479444168392425	737.2945679769173	259.72929688902934	-126.22468247062284	563.4407778738243	35.77801482657908	-91.60099567407441	324.24992480731316	80.26769695596187
991	4.95	3.61477248105769	737.2966225172405	259.6810434394257	-126.51814726015886	563.4897248705349	35.83388231481763	-93.00553344215768	323.93235253670497	80.04291282938115
992	4.955	3.5794954195133184	737.2984257635661	259.6319897669964	-126.81238077487093	563.5297414614017	35.89431472416909	-94.39453613797922	323.6095975746583	79.7834191934428
993	4.96	3.5420679317402546	737.2998877440215	259.58213540196624	-127.10705340337061	563.5609646298687	35.95889554492443	-95.76646494811905	323.28221177308296	79.48942089779428
994	4.965	3.5024481177892977	737.3009178108072	259.5314817814244	-127.4018283451623	563.5835532652732	36.027191816645384	-97.11981662898663	322.9507586596311	79.16120440362369
995	4.97	3.460597676672116	737.3014250327901	259.4800322871154	-127.69636241354902	563.5976873770644	36.09875597073029	-98.45312707534312	322.61581160195874	78.79913651873794
996	4.975	3.416482095366382	737.3013185875197	259.4277922712264	-127.99030688607638	563.6035672298547	36.17312773935508	-99.76497476941236	322.27795193295384	78.40366284433162
997	4.98	3.37007082739084	737.3005081506553	259.3747690695191	-128.28330839971198	563.6014124041604	36.249836120384444	-101.05398410032174	321.93776704565323	77.9753059429652
998	4.985	3.3213374599857484	737.2989042808382	259.3209720012085	-128.57500988764264	563.5914607880488	36.3284013875645	-102.3188285440921	321.59584846673727	77.51466323863747
999	4.99	3.270259868966482	737.2964187980797	259.2664123550517	-128.8650515542704	563.5739675052178	36.40833713509703	-103.55823369489534	321.2527899175986	77.0224046611216
1000	4.995	3.216820360356406	737.2929651537969	259.2111033611784	-129.15307188470527	563.5492037853215	36.48915234555593	-104.77098013882022	320.909185372036	76.49927004793135
1001	5.0	3.1610057979493775	737.2884587906982	259.15506014826246	-129.4387086847866	563.5174557826001	36.57035347003972	-105.95590616192872	320.5656271196181	75.9460663183838
1002	5.005	3.102807716002079	737.2828174907982	259.09829968571563	-129.72160014742255	563.479023349066	36.65144650945871	-107.11191028494684	320.2227038437042	75.363664435224
1003	5.01	3.0422224163118834	737.2759617099287	259.040840710659	-130.00138594081562	563.4342187686746	36.73193908593056	-108.23795361751391	319.8809987229912	74.7529961701665
1004	5.015	2.9792510489966	737.267814897216	258.9827036395165	-130.27770831394685	563.3833654590183	36.811342493402336	-109.33306202551134	319.5410875652859	74.11505069048752
1005	5.02	2.913899676358269	737.258303798092	258.9239104641626	-130.5502132145205	563.3267966471744	36.889173716828026	-110.39632810560659	319.20353698198073	73.45087098446191
1006	5.025	2.846179319283538	737.2473587395297	258.8644846326443	-130.81855141442924	563.2648540263715	36.96495740950587	-111.42691296177742	318.8689026114329	72.76155014398263
1007	5.03	2.776105985708018	737.2349138963053	258.8044509145963	-131.08237963768505	563.197886400143	37.03822781851642	-112.42404777922617	318.5377273991303	72.04822752312089
1008	5.035	2.7037006807507424	737.2209075372201	258.74383525155844	-131.34136168567647	563.1262483206038	37.108530648596776	-113.38703519175137	318.21053994215697	71.31208479168603
1009	5.04	2.6289893982071657	737.2052822503423	258.6826645925066	-131.5951695545578	563.0502987273994	37.17542485523603	-114.31525043931472	317.8878529050628	70.55434190302108
1010	5.045	2.5520030931746054	737.1879851464641	258.62096671500257	-131.8434845395515	562.970399593774	37.23848435827611	-115.20814231322288	317.570161513797	69.77625299532748
1011	5.05	2.472777635671989	737.1689680401065	258.5587700324691	-132.08599832095052	562.8869145860504	37.29729966784873	-116.06523388703417	317.25794213388144	68.97910224575031
1012	5.055	2.391353745205986	737.148187607539	258.4961033881928	-132.3224140266443	562.8002077426358	37.351479415067324	-116.8861230319997	316.95165093848783	68.16419969627682
